HIERARCHY
ROOT Hips
{
 OFFSET 0.000000 0.000000 0.000000
 CHANNELS 6 Xposition Yposition Zposition Yrotation Xrotation Zrotation
 JOINT Chest
 {
  OFFSET 0.000000 9.585900 0.002600
  CHANNELS 3 Yrotation Xrotation Zrotation
  JOINT Chest2
  {
   OFFSET 0.000000 9.601200 -0.005300
   CHANNELS 3 Yrotation Xrotation Zrotation
   JOINT Chest3
   {
    OFFSET 0.000000 9.561800 0.000000
    CHANNELS 3 Yrotation Xrotation Zrotation
    JOINT Chest4
    {
     OFFSET 0.000000 9.552100 0.000000
     CHANNELS 3 Yrotation Xrotation Zrotation
     JOINT Neck
     {
      OFFSET 0.000000 14.453000 0.000000
      CHANNELS 3 Yrotation Xrotation Zrotation
      JOINT Head
      {
       OFFSET 0.000000 8.936500 -0.011300
       CHANNELS 3 Yrotation Xrotation Zrotation
       End Site
       {
        OFFSET 0.000000 17.073600 -0.006000
       }
      }
     }
     JOINT RightCollar
     {
      OFFSET -2.921100 9.558500 0.000000
      CHANNELS 3 Yrotation Xrotation Zrotation
      JOINT RightShoulder
      {
       OFFSET -13.519700 0.000000 0.000000
       CHANNELS 3 Yrotation Xrotation Zrotation
       JOINT RightElbow
       {
        OFFSET 0.000000 -29.696600 0.000000
        CHANNELS 3 Yrotation Xrotation Zrotation
        JOINT RightWrist
        {
         OFFSET 0.000000 -24.004700 0.000000
         CHANNELS 3 Yrotation Xrotation Zrotation
         End Site
         {
          OFFSET 0.000000 -17.728500 0.000000
         }
        }
       }
      }
     }
     JOINT LeftCollar
     {
      OFFSET 2.921100 9.558500 0.000000
      CHANNELS 3 Yrotation Xrotation Zrotation
      JOINT LeftShoulder
      {
       OFFSET 13.519700 0.000000 0.000000
       CHANNELS 3 Yrotation Xrotation Zrotation
       JOINT LeftElbow
       {
        OFFSET 0.000000 -29.696600 0.000000
        CHANNELS 3 Yrotation Xrotation Zrotation
        JOINT LeftWrist
        {
         OFFSET 0.000000 -24.004700 0.000000
         CHANNELS 3 Yrotation Xrotation Zrotation
         End Site
         {
          OFFSET 0.000000 -17.728500 0.000000
         }
        }
       }
      }
     }
    }
   }
  }
 }
 JOINT RightHip
 {
  OFFSET -7.771700 -0.012900 -0.001300
  CHANNELS 3 Yrotation Xrotation Zrotation
  JOINT RightKnee
  {
   OFFSET 0.000000 -40.869800 0.001200
   CHANNELS 3 Yrotation Xrotation Zrotation
   JOINT RightAnkle
   {
    OFFSET 0.000000 -39.717900 0.002100
    CHANNELS 3 Yrotation Xrotation Zrotation
    JOINT RightToe
    {
     OFFSET 0.000000 -4.965400 11.033500
     CHANNELS 3 Yrotation Xrotation Zrotation
     End Site
     {
      OFFSET 0.000000 -1.423100 5.872300
     }
    }
   }
  }
 }
 JOINT LeftHip
 {
  OFFSET 7.771700 -0.012900 -0.001300
  CHANNELS 3 Yrotation Xrotation Zrotation
  JOINT LeftKnee
  {
   OFFSET 0.000000 -40.869800 0.001200
   CHANNELS 3 Yrotation Xrotation Zrotation
   JOINT LeftAnkle
   {
    OFFSET 0.000000 -39.717900 0.002100
    CHANNELS 3 Yrotation Xrotation Zrotation
    JOINT LeftToe
    {
     OFFSET 0.000000 -4.965400 11.033500
     CHANNELS 3 Yrotation Xrotation Zrotation
     End Site
     {
      OFFSET 0.000000 -1.423100 5.872300
     }
    }
   }
  }
 }
}
MOTION
Frames: 5
Frame Time: 0.008333
0.000000 85.388000 0.000000 0.000000 -5.767877 0.000000 0.000000 11.653817 0.000000 0.000000 -5.885947 0.000000 0.000000 -0.000000 0.000000 0.000000 -0.000000 0.000000 0.000000 12.528835 0.000000 0.000000 0.711642 0.000000 0.000000 -0.000000 0.000000 0.000000 0.000000 -90.000000 0.000000 -2.309062 0.000000 0.000000 2.309062 0.000000 0.000000 -0.000000 0.000000 0.000000 -0.000000 90.000000 0.000000 -2.309062 0.000000 0.000000 2.309062 0.000000 0.000000 8.520406 0.000000 0.000000 1.905762 0.000000 -0.000000 -4.658285 0.000000 0.000000 -0.000000 0.000000 0.000000 8.520406 0.000000 0.000000 1.905762 0.000000 -0.000000 -4.658285 0.000000 0.000000 -0.000000 0.000000
-192.460527 58.011502 28.764565 171.736618 -49.611407 -3.321645 5.226414 21.835985 3.276069 2.704468 12.490259 1.663040 3.468059 15.521424 2.189849 2.704480 12.481513 1.665771 2.104415 16.316009 2.773454 2.952690 -5.618139 4.397919 0.905712 4.041587 0.626047 -1.326966 -13.626686 -8.814078 -105.198575 -62.536406 142.491103 2.208054 -10.626244 -19.411500 -10.332868 1.557612 -1.090182 6.689563 -15.146595 10.880245 93.886061 -46.682571 -142.725310 -0.866947 -7.145106 -12.662983 4.309861 -22.974432 0.485520 -38.274911 73.226549 -39.655457 5.834841 -12.505455 9.581555 0.006139 -0.167660 0.003814 -2.183988 -21.507682 11.854702 53.357160 79.303165 53.165500 4.506641 -15.847725 -16.407881 0.075240 0.155152 0.046661
-192.460197 58.011518 28.768159 171.736318 -49.635155 -3.317420 5.228926 21.803074 3.279475 2.711948 12.429126 1.670021 3.463539 15.558826 2.193621 2.704985 12.472267 1.668644 2.114645 16.363674 2.782386 2.942270 -5.450238 4.417196 0.894913 4.100732 0.638608 -1.327080 -13.629964 -8.821752 -105.470385 -62.518409 142.708752 2.324182 -10.739593 -18.881597 -10.321974 1.611774 -1.082873 6.675242 -15.090636 10.965787 93.811544 -46.576825 -142.775389 -1.053486 -7.011148 -13.100959 4.313531 -22.951674 0.485055 -38.270033 73.222930 -39.647418 5.830565 -12.500346 9.572841 0.003784 -0.167061 0.009569 -2.184188 -21.481277 11.852432 53.322887 79.302073 53.124708 4.510583 -15.848260 -16.409608 0.072781 0.159679 0.047324
-192.459581 58.016007 28.768537 171.741457 -49.697619 -3.315389 5.235610 21.805094 3.287460 2.713989 12.401002 1.674673 3.461561 15.563627 2.197392 2.705816 12.462116 1.671549 2.116288 16.429081 2.789589 2.946944 -5.303186 4.432261 0.887582 4.119550 0.662507 -1.331805 -13.615800 -8.834026 -105.688369 -62.539123 142.860999 2.447692 -10.830698 -18.328900 -10.312522 1.667652 -1.079512 6.644177 -15.041935 11.005965 93.685543 -46.521022 -142.768889 -1.257896 -6.856424 -13.580361 4.311227 -22.886893 0.489424 -38.243345 73.217419 -39.627889 5.829374 -12.486947 9.571097 0.007866 -0.175424 0.010781 -2.184977 -21.413994 11.847417 53.291638 79.300007 53.086268 4.511410 -15.841070 -16.407334 0.069052 0.154221 0.043677
-192.459702 58.017388 28.771911 171.741375 -49.738737 -3.307589 5.240715 21.786121 3.289843 2.714776 12.387573 1.679041 3.462202 15.549456 2.200568 2.706336 12.450701 1.674168 2.120344 16.495328 2.796272 2.953359 -5.180334 4.443387 0.880867 4.144455 0.684716 -1.348927 -13.663645 -8.829432 -105.772563 -62.613332 142.877795 2.583057 -10.905166 -17.758708 -10.287557 1.693788 -1.076466 6.591472 -14.957858 11.048030 93.521894 -46.475721 -142.724174 -1.474931 -6.684159 -14.102483 4.316809 -22.847051 0.489320 -38.239774 73.213868 -39.628816 5.827226 -12.479969 9.571004 0.005695 -0.178356 0.012462 -2.183696 -21.369393 11.841717 53.264834 79.297008 53.051357 4.514136 -15.840226 -16.409422 0.069844 0.156033 0.044454
